<svg version="1.1" id="Layer_1" xmlns="http://www.w3.org/2000/svg" xmlns:xlink="http://www.w3.org/1999/xlink" x="0px" y="0px"
	 width="100%" viewBox="0 0 1024 1024" enable-background="new 0 0 1024 1024" xml:space="preserve">
<path fill="#000000" opacity="1.000000" stroke="none" 
	d="
M335.440918,507.471466 
	C352.207092,479.328125 361.398834,449.186829 364.025970,416.952942 
	C365.417297,399.882141 364.475220,382.669891 367.651062,365.699402 
	C376.686523,317.417572 399.271149,277.702087 440.458984,249.641754 
	C443.617920,247.489639 446.866974,245.324402 450.362976,243.849991 
	C454.526123,242.094223 455.402557,239.928558 454.366974,235.420380 
	C450.848267,220.102280 451.838470,204.946777 458.105927,190.392166 
	C470.484650,161.645813 504.609680,147.524063 534.355164,159.042023 
	C558.406128,168.354935 570.654236,186.705795 573.177856,211.893753 
	C573.942322,219.523788 573.663025,227.242599 571.870544,234.753922 
	C571.204224,237.545883 571.743835,238.892914 574.369324,240.216888 
	C619.753967,263.102936 646.848694,300.480774 660.414917,348.695496 
	C666.166382,369.136414 666.646118,390.031769 667.354614,411.017822 
	C668.452148,443.526245 675.778076,474.765808 690.075073,503.985535 
	C708.563477,541.771729 733.163391,575.550659 760.695679,607.216553 
	C770.980408,619.045349 782.367249,629.765015 794.419495,639.835693 
	C803.715027,647.602844 808.157410,658.071167 808.411438,670.191101 
	C808.582581,678.353455 808.279541,686.532837 808.681213,694.680359 
	C808.894226,699.002869 807.317017,700.352478 803.284302,700.201050 
	C798.458008,700.019714 793.619507,700.163269 788.786316,700.163452 
	C600.791199,700.170166 412.796082,700.176514 224.800949,700.183044 
	C217.580795,700.183289 217.603226,700.183716 217.624191,693.122498 
	C217.651901,683.789490 217.684616,674.456055 217.632568,665.123291 
	C217.583054,656.243958 220.701248,648.596008 227.576050,643.119507 
	C265.698547,612.750916 293.779724,573.996155 319.681396,533.406677 
	C325.056183,524.984070 330.070862,516.331604 335.440918,507.471466 
M481.512177,212.214752 
	C480.957855,216.032272 481.008911,219.868317 481.378815,223.685547 
	C482.046875,230.580093 482.624298,230.991638 489.426086,229.538025 
	C504.918884,226.227051 520.493225,225.947464 536.096924,228.461197 
	C543.921265,229.721664 544.494324,229.423416 544.859558,221.376343 
	C544.912415,220.211227 544.942261,219.044067 544.944580,217.877792 
	C544.977905,201.155045 534.228271,189.329056 517.284668,187.440125 
	C499.362518,185.442078 485.223907,194.963989 481.512177,212.214752 
z"/>
<path fill="#000000" opacity="1.000000" stroke="none" 
	d="
M432.270264,876.063843 
	C462.476044,873.895752 492.269775,873.081726 522.057007,872.095947 
	C534.066406,871.698547 546.036133,872.518616 558.004211,873.145569 
	C570.632874,873.807190 583.249451,874.795959 595.847473,875.910583 
	C604.661499,876.690369 613.293518,878.490356 621.583313,881.764893 
	C627.351562,884.043274 631.322754,888.032227 633.679321,893.693665 
	C637.429626,902.703918 634.552124,909.418396 625.315613,912.633911 
	C619.312439,914.723694 612.989197,915.593323 606.690247,916.079102 
	C599.401123,916.641174 592.118591,916.940308 584.988220,918.809692 
	C578.489624,920.513367 571.778748,919.313599 565.172485,919.712158 
	C549.406860,920.663208 533.598206,921.684570 517.760315,921.126831 
	C509.259888,920.827454 500.817261,921.557983 492.366302,922.724854 
	C486.131348,923.585876 480.028931,921.083252 473.648590,921.068909 
	C456.377808,921.030029 439.076752,920.596497 421.847443,919.434265 
	C399.729340,917.942322 377.561188,916.732788 355.814331,911.611938 
	C345.006683,909.067017 334.066254,909.204346 323.338440,913.284180 
	C315.440857,916.287659 307.160248,916.204712 298.709045,915.757446 
	C291.730652,915.388123 284.919373,914.321655 278.031158,913.628967 
	C268.497833,912.670227 261.873840,907.350769 255.163101,901.598328 
	C252.642334,899.437500 249.975784,897.425964 247.242325,895.539673 
	C244.128220,893.390625 243.346909,891.817322 247.307373,889.501282 
	C251.235046,887.204346 255.214127,885.318359 259.623383,884.212830 
	C271.224030,881.304077 282.493866,877.194214 294.592743,876.154236 
	C302.703735,875.457092 309.766541,877.051636 316.206024,881.867920 
	C327.940948,890.644958 340.645905,892.194519 354.489044,887.575439 
	C371.637878,881.853333 389.292328,878.669556 407.391388,877.897217 
	C415.538574,877.549561 423.664795,876.710022 432.270264,876.063843 
z"/>
<path fill="#000000" opacity="1.000000" stroke="none" 
	d="
M505.000000,709.813599 
	C528.661377,709.801880 551.823120,709.851196 574.983887,709.724915 
	C579.278992,709.701416 580.912537,710.314087 580.562622,715.567505 
	C578.611145,744.868286 557.100037,771.617615 524.220520,777.783691 
	C486.688965,784.822144 448.189514,755.192993 445.692383,717.061035 
	C445.214996,709.770996 445.214996,709.792114 452.511688,709.799133 
	C469.841125,709.815857 487.170563,709.810547 505.000000,709.813599 
z"/>
</svg>