<svg version="1.1" id="Layer_1" xmlns="http://www.w3.org/2000/svg" xmlns:xlink="http://www.w3.org/1999/xlink" x="0px" y="0px"
	 width="100%" viewBox="0 0 2000 2000" enable-background="new 0 0 2000 2000" xml:space="preserve">
<path fill="none" opacity="1.000000" stroke="#000000" stroke-linecap="round" stroke-linejoin="round" stroke-width="11.000000"
	d="
M1482.000000,1073.000000 
	C1485.316772,1071.741699 1485.182861,1068.484131 1485.385132,1065.990723 
	C1486.201904,1055.924438 1488.290039,1046.028320 1489.197632,1035.995239 
	C1490.643433,1020.013000 1491.811401,1004.004517 1492.985229,987.998901 
	C1494.603271,965.935791 1493.383545,943.898010 1490.843994,922.018127 
	C1488.032715,897.799011 1482.471558,874.071533 1472.931396,851.529053 
	C1462.841553,827.687805 1448.899292,806.266296 1431.557373,786.948486 
	C1407.167969,759.779968 1378.122192,738.999146 1346.071655,721.866028 
	C1329.302246,712.901733 1312.136719,704.818115 1294.414062,698.231140 
	C1275.167114,691.077698 1255.649902,684.544128 1235.555176,679.768066 
	C1224.687378,677.185120 1213.828247,674.314575 1202.960815,671.660706 
	C1191.804321,668.936157 1180.365112,667.292725 1168.992310,665.550476 
	C1153.523315,663.180908 1138.033325,660.876343 1122.489502,659.091125 
	C1109.874512,657.642273 1097.179443,656.775757 1084.497314,656.047729 
	C1059.689209,654.623474 1034.820923,653.013245 1010.012085,654.243469 
	C991.346313,655.169067 972.649963,654.594116 953.961182,656.646851 
	C940.725403,658.100586 927.342957,659.125671 914.008911,660.119263 
	C904.296753,660.842896 894.655945,662.594177 885.003052,664.020569 
	C875.489136,665.426392 865.976013,666.864563 856.507812,668.544006 
	C849.301758,669.822144 842.167236,671.502686 834.999878,672.999390 
	C820.947388,675.933960 806.854187,678.696228 793.002258,682.508179 
	C771.445007,688.440735 750.297302,695.357239 729.939026,704.869507 
	C697.625916,719.967712 666.905884,737.675903 638.029907,758.541382 
	C606.748474,781.144714 582.086853,809.325195 566.474670,844.988892 
	C557.819702,864.759766 551.222412,885.188599 548.143616,906.520752 
	C545.471497,925.035156 544.470093,943.771057 545.075745,962.497559 
	C545.523560,976.343323 546.125549,990.228271 547.690125,1003.978394 
	C548.734253,1013.155396 549.907410,1022.366089 551.286804,1031.532104 
	C553.824524,1048.394897 557.167175,1065.053467 561.565918,1081.482300 
	C569.343933,1110.532471 579.780396,1138.444092 596.930359,1163.547607 
	C610.380249,1183.235229 626.786499,1199.667603 647.532837,1211.442139 
	C669.584290,1223.957275 692.452209,1234.684326 716.439148,1243.171997 
	C732.628601,1248.900635 748.974670,1253.973389 765.520569,1258.423584 
	C776.913574,1261.487915 788.471069,1263.966919 800.007263,1266.466431 
	C814.740967,1269.659058 829.610718,1272.122681 844.490417,1274.558594 
	C865.761230,1278.040771 887.110901,1280.959229 908.513123,1283.384277 
	C922.295288,1284.945923 936.114929,1286.300171 949.992554,1287.125122 
	C967.657837,1288.175415 985.277161,1289.762451 1002.998047,1290.102539 
	C1019.331177,1290.415894 1035.666748,1291.344971 1051.998047,1290.922485 
	C1071.506470,1290.417969 1091.018921,1289.613525 1110.486206,1288.295898 
	C1115.149048,1287.980347 1119.826538,1287.744019 1124.499268,1287.486938 
	C1126.003906,1287.404053 1127.519897,1287.268555 1128.996216,1286.980713 
	C1133.195801,1286.161865 1135.661255,1282.709351 1136.062988,1278.505981 
	C1137.036255,1268.320923 1138.805542,1258.192017 1139.353882,1247.992188 
	C1139.811401,1239.485962 1140.287964,1230.983521 1141.024292,1222.502075 
	C1144.448242,1183.060059 1143.943481,1143.528198 1144.074585,1104.000244 
	C1144.151001,1080.965454 1142.912964,1057.987427 1141.871460,1035.005859 
	C1141.289673,1022.170166 1139.467407,1009.389221 1139.508423,996.500000 
	C1139.512085,995.366394 1139.285278,994.495361 1138.560669,993.457642 
	C1129.109741,979.922607 1119.584351,966.437683 1110.142700,952.900452 
	C1102.069580,941.325317 1094.071289,929.653809 1085.277954,918.677917 
	C1079.180176,911.066650 1074.385620,902.675293 1068.502075,894.998413 
	C1061.992920,886.505371 1055.491089,878.006775 1049.003174,869.497559 
	C1044.819580,864.010559 1039.497070,859.009827 1036.817017,852.861755 
	C1033.927368,846.232788 1028.865356,843.006226 1023.500000,839.500000 
"/>
<path fill="none" opacity="1.000000" stroke="#000000" stroke-linecap="round" stroke-linejoin="round" stroke-width="10.000000"
	d="
M602.500000,824.500000 
	C602.713989,842.097412 609.585632,857.299561 620.609131,870.408264 
	C637.247131,890.193481 659.308838,902.423218 682.449402,913.109619 
	C695.771057,919.261719 709.317505,924.786743 723.016113,929.957214 
	C743.952698,937.859558 765.207642,944.753967 786.967651,950.130859 
	C794.169312,951.910339 801.260437,954.286438 808.507568,955.967346 
	C821.596069,959.003174 834.713562,961.917480 847.996399,964.022644 
	C851.512451,964.579956 855.040771,965.380371 858.454712,966.190735 
	C870.688599,969.094666 883.188599,970.203735 895.517029,972.404480 
	C904.763977,974.055115 914.166016,974.838501 923.500122,975.998779 
	C939.961731,978.044983 956.485352,979.488159 972.981323,981.181641 
	C985.978027,982.515930 998.998291,983.352356 1012.000061,984.499207 
	C1031.805542,986.246155 1051.642212,987.504639 1071.494629,988.597229 
	C1076.825684,988.890564 1082.064453,990.802246 1087.500000,989.500000 
"/>
<path fill="none" opacity="1.000000" stroke="#000000" stroke-linecap="round" stroke-linejoin="round" stroke-width="7.000000"
	d="
M1457.500000,1063.500000 
	C1457.500000,1036.166626 1457.680298,1008.831543 1457.411133,981.500854 
	C1457.303833,970.606384 1457.097168,959.649048 1454.035767,948.989746 
	C1450.738037,937.508240 1443.140991,930.244446 1431.973633,927.093384 
	C1415.910278,922.560913 1399.810547,917.923157 1383.450562,914.755127 
	C1372.092407,912.555603 1360.531128,910.919495 1349.044678,909.201233 
	C1338.874634,907.679993 1328.627686,906.390137 1318.459229,904.753113 
	C1309.892456,903.373901 1301.156494,902.572571 1292.504639,901.463928 
	C1281.985107,900.115784 1271.479736,898.627258 1261.005615,896.964294 
	C1250.479858,895.293213 1239.993164,893.371399 1229.501709,891.490662 
	C1214.828491,888.860535 1200.161499,886.194519 1185.501709,883.491028 
	C1173.993408,881.368835 1162.503052,879.150452 1150.999146,877.004211 
	C1137.502563,874.486267 1124.016968,871.902954 1110.493042,869.539978 
	C1103.504028,868.318848 1096.669312,866.150879 1089.500000,866.000000 
"/>
<path fill="none" opacity="1.000000" stroke="#000000" stroke-linecap="round" stroke-linejoin="round" stroke-width="9.000000"
	d="
M1092.500000,703.500000 
	C1084.500000,705.666687 1076.455322,707.682373 1068.508911,710.030273 
	C1049.647827,715.603027 1030.830444,721.323547 1012.000732,727.002380 
	C987.164490,734.492615 962.271606,741.803101 937.518005,749.557434 
	C914.433838,756.788879 891.506104,764.518860 868.497803,771.993347 
	C853.509399,776.862366 838.470337,781.576904 823.507568,786.522949 
	C805.142517,792.593567 786.831604,798.828308 768.500610,805.001709 
	C755.164368,809.493042 741.813293,813.941711 728.505615,818.516418 
	C715.146729,823.108643 701.822327,827.802185 688.504578,832.512939 
	C681.645203,834.939331 674.833313,837.499939 668.000000,839.999939 
"/>
<path fill="none" opacity="1.000000" stroke="#000000" stroke-linecap="round" stroke-linejoin="round" stroke-width="14.000000"
	d="
M1034.000000,845.500000 
	C1037.531616,843.681213 1041.415527,844.117249 1044.984131,844.613831 
	C1058.523438,846.497925 1071.982178,848.953186 1085.505493,850.963013 
	C1096.812134,852.643311 1108.183472,853.884399 1119.494629,855.536682 
	C1128.521118,856.855164 1137.490112,858.562317 1146.502563,859.984070 
	C1157.491943,861.717834 1168.501221,863.325500 1179.499512,865.003357 
	C1184.835815,865.817383 1190.251953,867.697632 1195.480591,867.264893 
	C1203.880981,866.569580 1210.973755,871.041931 1218.990479,871.629944 
	C1226.701172,872.195496 1234.341064,873.785400 1241.998169,875.011414 
	C1253.171875,876.800537 1264.335815,878.651733 1275.499390,880.503418 
	C1292.501587,883.323486 1309.461670,886.427673 1326.509644,888.934570 
	C1348.229614,892.128418 1369.897461,895.584412 1391.511597,899.434692 
	C1405.616577,901.947327 1419.926025,903.363159 1433.973877,906.132202 
	C1448.031250,908.903076 1461.061646,914.327942 1467.375610,928.555237 
	C1471.553833,937.970276 1473.150879,948.202637 1474.019531,958.498352 
	C1475.647949,977.800232 1475.777954,997.169189 1476.779297,1016.485535 
	C1477.506836,1030.516235 1477.825806,1044.544067 1477.194092,1058.486084 
	C1476.776855,1067.692017 1479.562622,1076.788452 1477.094971,1086.025391 
	C1474.355225,1096.280396 1472.230103,1106.718140 1467.955688,1116.480591 
	C1463.911865,1125.716675 1455.942993,1129.741455 1446.492798,1130.396240 
	C1430.637695,1131.494995 1414.802368,1130.082153 1399.003540,1128.709595 
	C1394.004150,1128.275269 1388.956787,1128.018555 1383.986450,1127.750610 
	C1374.296997,1127.228394 1364.633179,1126.411865 1355.012573,1125.382446 
	C1344.510010,1124.258545 1333.967529,1123.457153 1323.467529,1122.292603 
	C1311.990479,1121.019775 1300.474731,1119.830688 1289.011230,1118.409790 
	C1272.289551,1116.337280 1255.615601,1113.876221 1238.961670,1111.242310 
	C1228.663940,1109.613647 1218.365356,1107.797241 1208.022583,1106.339600 
	C1196.424194,1104.704712 1185.035034,1101.638794 1173.489136,1099.560669 
	C1164.027710,1097.857910 1154.820190,1094.471924 1145.000000,1095.000000 
"/>
<path fill="none" opacity="1.000000" stroke="#000000" stroke-linecap="round" stroke-linejoin="round" stroke-width="9.000000"
	d="
M1241.500000,735.500000 
	C1232.217041,737.865173 1223.794922,742.408997 1215.013428,746.032654 
	C1200.792358,751.901123 1186.626221,757.906372 1172.453369,763.889648 
	C1141.604248,776.913391 1110.503540,789.341919 1079.498901,801.997131 
	C1057.004883,811.178589 1034.500854,820.335388 1011.999817,829.499573 
	C984.167358,840.835083 956.291016,852.064209 928.513977,863.533936 
	C907.942810,872.028198 887.504456,880.843933 866.997925,889.495117 
	C857.843384,893.357178 848.640991,897.107666 839.533447,901.076782 
	C838.433594,901.556091 837.486938,901.254944 836.500000,901.500000 
"/>
<path fill="none" opacity="1.000000" stroke="#000000" stroke-linecap="round" stroke-linejoin="round" stroke-width="6.000000"
	d="
M1397.000000,785.000000 
	C1380.957153,771.891174 1364.170044,759.776306 1346.453003,749.077881 
	C1321.085205,733.759644 1294.345947,721.201904 1266.509399,710.974365 
	C1245.076416,703.099548 1223.188232,696.798828 1200.995239,691.520142 
	C1190.689819,689.068970 1180.428467,686.152893 1169.973145,684.692322 
	C1159.627075,683.246887 1149.376343,681.233643 1139.029541,679.788391 
	C1127.534790,678.182739 1116.025513,676.796875 1104.497925,675.518738 
	C1097.509888,674.743958 1090.624634,672.857666 1083.500000,673.500000 
"/>
<path fill="none" opacity="1.000000" stroke="#000000" stroke-linecap="round" stroke-linejoin="round" stroke-width="7.000000"
	d="
M943.500000,671.500000 
	C930.500000,675.000000 917.505371,678.520081 904.498230,681.993347 
	C895.007324,684.527527 885.434814,686.778503 876.014832,689.550415 
	C860.792969,694.029663 845.677368,698.868408 830.496460,703.488342 
	C819.347839,706.881165 808.042664,709.806458 797.033264,713.596558 
	C784.872620,717.783081 772.653870,721.805969 760.525208,726.071716 
	C730.210938,736.733826 700.220032,748.269592 670.500061,760.500122 
	C667.666504,761.666199 664.833313,762.833374 662.000000,764.000000 
"/>
<path fill="none" opacity="1.000000" stroke="#000000" stroke-linecap="round" stroke-linejoin="round" stroke-width="7.000000"
	d="
M1408.500000,1111.500000 
	C1403.500000,1112.848389 1398.492798,1111.660889 1393.501587,1111.460815 
	C1384.317627,1111.092896 1375.195435,1109.888672 1366.006348,1109.385010 
	C1352.981445,1108.671387 1339.993408,1107.235107 1327.002075,1105.979004 
	C1315.992188,1104.914307 1304.931641,1104.096802 1294.021973,1102.361816 
	C1285.523315,1101.010254 1276.941772,1099.767944 1268.462158,1098.848999 
	C1257.265503,1097.635620 1246.176270,1095.742920 1235.014526,1094.380615 
	C1222.950195,1092.908325 1210.992798,1090.541992 1199.001953,1088.488770 
	C1185.660156,1086.204468 1172.298584,1084.010864 1159.018311,1081.406860 
	C1154.154175,1080.452881 1149.448120,1079.168579 1144.500000,1080.500000 
"/>
<path fill="none" opacity="1.000000" stroke="#000000" stroke-linecap="round" stroke-linejoin="round" stroke-width="10.000000"
	d="
M900.500000,986.500000 
	C888.166687,985.500000 875.743591,985.113342 863.525452,983.326172 
	C851.501465,981.567322 839.430176,980.048401 827.446960,977.780334 
	C816.421021,975.693542 805.445557,973.455994 794.494141,971.026428 
	C781.537354,968.151978 768.673889,964.897339 756.020752,960.933838 
	C742.595154,956.728333 729.067749,952.652405 716.058411,947.356567 
	C692.988098,937.965149 670.086853,928.116455 648.431335,915.619019 
	C645.249023,913.782471 642.344788,911.143799 638.500000,910.500000 
"/>
<path fill="none" opacity="1.000000" stroke="#000000" stroke-linecap="round" stroke-linejoin="round" stroke-width="10.000000"
	d="
M609.500000,934.500000 
	C610.452881,936.500000 609.826904,938.479126 609.520508,940.503113 
	C604.399597,974.330872 604.021851,1008.416138 604.677795,1042.496582 
	C604.892517,1053.654053 606.247498,1064.854858 607.263306,1076.021484 
	C608.052612,1084.698608 609.005615,1093.367798 610.125977,1101.983643 
	C611.997742,1116.377075 614.143311,1130.778809 617.183044,1144.960815 
	C619.227966,1154.501587 620.577148,1164.265381 623.953186,1173.517090 
	C624.148315,1174.051636 623.666626,1174.833374 623.500000,1175.500000 
"/>
<path fill="none" opacity="1.000000" stroke="#000000" stroke-linecap="round" stroke-linejoin="round" stroke-width="10.000000"
	d="
M759.500000,999.500000 
	C760.904724,1004.290833 758.855347,1008.834961 758.523376,1013.501648 
	C757.716064,1024.853271 755.885193,1036.096924 755.398071,1047.495605 
	C754.963013,1057.675903 753.021362,1067.764404 752.895020,1077.998657 
	C752.888672,1078.511597 752.490356,1079.321167 752.516418,1079.999390 
	C752.939880,1091.023926 750.950989,1101.958496 751.444031,1113.002441 
	C751.927429,1123.830444 750.316956,1134.609985 750.858459,1145.507080 
	C751.937256,1167.212158 752.556396,1188.951172 755.633606,1210.480957 
	C756.681580,1217.813232 757.090698,1225.222534 758.500000,1232.500000 
"/>
<path fill="none" opacity="1.000000" stroke="#000000" stroke-linecap="round" stroke-linejoin="round" stroke-width="6.000000"
	d="
M1123.500000,1016.500000 
	C1126.762695,1074.303467 1125.250244,1132.163330 1125.393799,1190.000244 
	C1125.431396,1205.165161 1124.166626,1220.333374 1123.500000,1235.500000 
"/>
<path fill="none" opacity="1.000000" stroke="#000000" stroke-linecap="round" stroke-linejoin="round" stroke-width="10.000000"
	d="
M941.500000,1039.500000 
	C942.558350,1047.500000 941.442932,1055.529175 941.707520,1063.493164 
	C942.095093,1075.161987 942.621582,1086.825562 942.475342,1098.499634 
	C942.072327,1130.675659 943.685059,1162.823120 943.773560,1194.999268 
	C943.815735,1210.321045 943.466431,1225.673950 944.066406,1240.997437 
	C944.257385,1245.874390 944.708069,1250.702637 943.500000,1255.500000 
"/>
<path fill="none" opacity="1.000000" stroke="#000000" stroke-linecap="round" stroke-linejoin="round" stroke-width="6.000000"
	d="
M954.500000,1078.500000 
	C955.343384,1080.271851 954.999451,1082.162354 954.983826,1083.999878 
	C954.721130,1114.863525 957.959717,1145.620239 957.637878,1176.501465 
	C957.492065,1190.492920 958.833313,1204.500000 959.500000,1218.500000 
"/>
<path fill="none" opacity="1.000000" stroke="#000000" stroke-linecap="round" stroke-linejoin="round" stroke-width="6.000000"
	d="
M768.500000,1055.500000 
	C768.091614,1069.192627 766.011047,1082.779053 765.861145,1096.498535 
	C765.847717,1097.731812 765.532837,1099.179688 765.534973,1100.500000 
	C765.572510,1123.342407 764.955627,1146.197388 766.974426,1169.002319 
	C767.637024,1176.487915 768.000000,1184.000000 768.500000,1191.500000 
"/>
<path fill="none" opacity="1.000000" stroke="#000000" stroke-linecap="round" stroke-linejoin="round" stroke-width="6.000000"
	d="
M803.500000,991.500000 
	C796.315613,991.439636 789.465454,989.266602 782.523621,987.881714 
	C769.680298,985.319580 757.017212,981.956421 744.478210,978.070374 
	C723.888184,971.689270 703.757568,964.229492 684.491577,954.516724 
	C684.225830,954.382690 683.833313,954.500000 683.500000,954.500000 
"/>
<path fill="none" opacity="1.000000" stroke="#000000" stroke-linecap="round" stroke-linejoin="round" stroke-width="3.000000"
	d="
M1288.500000,830.499939 
	C1274.500000,835.499939 1260.451660,840.369751 1246.514526,845.539246 
	C1234.444214,850.016357 1222.606445,855.142944 1210.439941,859.325317 
	C1206.403931,860.712769 1204.683838,863.292175 1203.000000,866.500000 
"/>
<path fill="none" opacity="1.000000" stroke="#000000" stroke-linecap="round" stroke-linejoin="round" stroke-width="8.000000"
	d="
M1079.500000,913.500000 
	C1051.688232,926.731384 1022.881775,937.614380 994.500000,949.500000 
"/>
<path fill="none" opacity="1.000000" stroke="#000000" stroke-linecap="round" stroke-linejoin="round" stroke-width="5.000000"
	d="
M1141.500000,929.500000 
	C1149.165039,931.685486 1152.576172,930.364197 1156.044312,924.526306 
	C1159.382080,918.907654 1156.647949,910.829346 1151.580566,906.407593 
	C1149.263550,904.385681 1146.666504,903.293945 1143.975464,902.594666 
	C1138.801514,901.250244 1133.793945,905.566040 1133.463135,910.997742 
	C1133.284668,913.928284 1134.044556,916.681030 1134.500000,919.500000 
"/>
<path fill="none" opacity="1.000000" stroke="#000000" stroke-linecap="round" stroke-linejoin="round" stroke-width="8.000000"
	d="
M1230.500000,975.500000 
	C1232.500000,975.833313 1234.494873,976.202087 1236.500854,976.493835 
	C1244.697510,977.685669 1250.804321,974.047852 1254.906982,967.442200 
	C1259.562866,959.945801 1259.321167,951.800171 1255.437378,944.031311 
	C1251.410278,935.976013 1244.937012,932.014282 1238.005249,933.035767 
	C1227.444458,934.591858 1218.540771,946.641174 1220.484619,957.002869 
	C1220.762207,958.482056 1220.833374,960.000000 1221.000000,961.500000 
"/>
<path fill="none" opacity="1.000000" stroke="#000000" stroke-linecap="round" stroke-linejoin="round" stroke-width="5.000000"
	d="
M1344.500000,1016.500000 
	C1347.247681,1021.558167 1351.163208,1023.528320 1357.019531,1022.078796 
	C1362.786499,1020.651367 1365.085693,1016.471375 1366.442627,1011.484375 
	C1367.521484,1007.518921 1364.936401,1003.829163 1360.000000,1001.500000 
	C1355.597412,999.422791 1350.757568,1000.596558 1347.423950,1003.923767 
	C1345.882080,1005.462585 1345.438721,1007.523743 1344.000000,1009.000000 
"/>
<path fill="none" opacity="1.000000" stroke="#000000" stroke-linecap="round" stroke-linejoin="round" stroke-width="4.000000"
	d="
M1195.500000,1046.500000 
	C1197.987915,1047.311279 1198.918823,1050.347290 1201.994629,1050.573486 
	C1208.058228,1051.019531 1212.845825,1045.839600 1211.413452,1039.519653 
	C1210.630249,1036.063843 1209.048950,1032.824097 1206.030151,1030.461548 
	C1203.365234,1028.375732 1200.655273,1026.931274 1197.528687,1029.042480 
	C1194.265137,1031.246094 1191.179321,1033.761108 1192.500000,1038.500000 
"/>
<path fill="none" opacity="1.000000" stroke="#000000" stroke-linecap="round" stroke-linejoin="round" stroke-width="5.000000"
	d="
M1329.500000,1081.500000 
	C1335.097534,1085.624390 1340.514648,1085.437622 1344.000000,1081.000000 
	C1347.659058,1076.341309 1345.781616,1068.066162 1340.562134,1063.430054 
	C1336.916992,1060.192505 1333.170654,1059.739258 1329.019043,1061.543945 
	C1325.662598,1063.002808 1324.424438,1065.947144 1324.500000,1069.500000 
"/>
<path fill="none" opacity="1.000000" stroke="#000000" stroke-linecap="round" stroke-linejoin="round" stroke-width="6.000000"
	d="
M1401.500000,951.000000 
	C1405.804565,951.649292 1410.076050,953.645142 1414.074219,949.572937 
	C1416.946289,946.647827 1417.227783,940.792908 1415.461792,937.520630 
	C1413.588501,934.049316 1408.029785,932.311096 1403.500000,933.499878 
	C1400.169189,934.374023 1397.415527,938.738342 1397.497803,943.000061 
	C1397.513794,943.833069 1397.500000,944.666687 1397.500000,945.500000 
"/>
</svg>