<svg version="1.1" id="Layer_1" xmlns="http://www.w3.org/2000/svg" xmlns:xlink="http://www.w3.org/1999/xlink" x="0px" y="0px"
	 width="100%" viewBox="0 0 1024 1024" enable-background="new 0 0 1024 1024" xml:space="preserve">
<path fill="#000000" opacity="1.000000" stroke="none" 
	d="
M523.875732,542.203491 
	C525.413635,526.625061 528.745789,511.829773 532.158813,497.101959 
	C537.545105,473.859589 537.292297,451.293854 527.178223,429.231476 
	C524.194275,422.722321 522.406067,415.672333 521.885498,408.498749 
	C520.223755,385.599670 539.723755,368.581390 562.300354,373.485657 
	C588.932861,379.270935 615.759766,382.453827 643.054138,381.814728 
	C679.864197,380.952820 715.441345,374.023193 749.830017,360.926544 
	C765.268433,355.046936 777.957031,361.244232 783.377686,376.876678 
	C788.919006,392.857300 790.215698,409.565918 787.681152,425.730682 
	C783.576050,451.912994 789.421753,475.410370 800.685120,498.566864 
	C806.321106,510.154022 809.563293,522.631409 807.367493,535.849976 
	C806.031860,543.890686 802.623047,551.136841 798.247131,557.848633 
	C783.997009,579.705017 773.874878,603.692078 762.242737,626.898804 
	C752.991028,645.356628 743.965820,663.929016 734.585388,682.320679 
	C729.884827,691.536865 724.147034,700.142944 717.003052,707.711731 
	C700.222290,725.490356 680.022034,730.107910 656.775513,723.549866 
	C639.527588,718.684021 626.138855,708.372803 615.454346,694.415527 
	C596.019531,669.027588 576.854980,643.432800 557.537354,617.954834 
	C552.405823,611.186829 547.547485,604.146179 541.834534,597.897278 
	C527.412292,582.122192 521.843506,563.688599 523.875732,542.203491 
M723.257935,608.770691 
	C730.659241,593.207581 733.975098,576.345093 738.022705,558.789856 
	C741.653931,562.753174 742.563782,566.420837 743.297058,570.159302 
	C743.994019,573.712891 744.494751,577.300598 744.674622,580.942200 
	C751.868774,562.630432 737.665161,542.234619 718.407104,543.614136 
	C724.798035,545.953674 730.198853,548.795471 734.632690,553.147217 
	C738.167175,556.616211 738.095215,558.406006 734.014832,560.977966 
	C689.920471,588.771790 644.511414,591.119873 597.766418,567.979004 
	C594.009094,566.118958 593.946167,564.024048 596.113647,560.922363 
	C598.768250,557.123718 602.359619,554.197510 605.286072,550.676392 
	C594.148865,554.540100 588.234619,562.763855 586.547424,574.049561 
	C585.823425,578.892090 585.924622,583.971008 590.408142,588.929138 
	C591.294373,581.069763 588.927917,573.907227 593.405457,567.732178 
	C594.054260,568.218933 594.478333,568.367188 594.548279,568.615234 
	C595.448669,571.808167 596.199463,575.045837 597.176697,578.213989 
	C605.558594,605.388306 620.562012,627.802673 644.849121,643.240051 
	C660.754211,653.349792 676.776611,653.864685 693.214905,643.596069 
	C706.735229,635.150269 716.219788,623.604431 723.257935,608.770691 
M686.802917,472.341644 
	C683.535522,479.641846 681.246094,487.084656 683.137756,496.302338 
	C707.949585,480.723541 733.579956,477.074951 761.608337,487.754456 
	C753.497620,475.123474 744.349487,465.115570 732.259644,458.322754 
	C714.387146,448.280884 697.075745,453.599609 686.802917,472.341644 
M619.007568,467.447632 
	C605.464294,459.814636 594.064331,460.442932 582.410461,469.889374 
	C572.228882,478.142303 565.352478,488.919250 559.968750,500.722992 
	C559.613403,501.502167 559.448608,502.311768 560.701660,503.237274 
	C564.825195,501.378387 569.100220,499.195587 573.556885,497.486542 
	C592.509521,490.218719 611.578430,489.873444 630.710632,496.882446 
	C632.382263,497.494873 634.212402,498.591766 635.833374,496.953888 
	C637.266174,495.506256 636.259583,493.794098 635.858337,492.231842 
	C633.286011,482.215607 628.282715,473.804657 619.007568,467.447632 
M703.550659,426.051270 
	C706.407104,423.502625 709.258118,420.947876 712.120972,418.406464 
	C722.842712,408.888428 733.853516,408.066803 745.823425,415.963623 
	C752.208374,420.175903 756.866943,426.011627 760.935059,432.378632 
	C762.525757,434.868347 764.164368,437.327454 765.781189,439.800476 
	C764.609070,429.837616 760.805542,421.228027 754.378418,414.010773 
	C740.176025,398.062286 720.903259,397.404602 705.604004,412.170898 
	C702.968201,414.714905 700.450012,417.380554 697.830750,419.942139 
	C693.996094,423.692230 689.886230,426.883392 684.557007,428.486877 
	C678.597107,430.280182 674.148987,427.520538 669.396423,423.784485 
	C671.465210,430.733704 676.012329,434.336975 682.651978,434.640594 
	C690.637512,435.005737 697.098816,431.414001 703.550659,426.051270 
M629.787598,432.376251 
	C634.310913,427.939606 634.799011,426.789581 633.747253,423.046814 
	C625.697754,431.058197 619.888000,432.107239 609.151733,427.240845 
	C604.155273,424.976135 599.365051,422.248657 594.336731,420.063599 
	C580.717529,414.145325 567.723694,416.576721 558.647644,426.410767 
	C551.446777,434.213074 547.971619,443.536194 547.301880,453.969055 
	C547.082092,457.391449 546.521973,460.938629 548.260437,465.354553 
	C549.362061,461.610199 550.154114,458.921661 550.944031,456.232483 
	C552.921021,449.502136 555.180176,442.883026 559.661133,437.328247 
	C566.785645,428.496399 576.695801,422.329834 590.426636,428.192535 
	C595.167297,430.216675 599.859680,432.394714 604.715637,434.099060 
	C612.988037,437.002472 621.270996,437.746582 629.787598,432.376251 
M689.266052,671.785522 
	C701.908813,667.938293 713.546326,659.607361 717.797852,651.320190 
	C692.998413,671.523315 666.202515,674.901917 637.228455,661.221985 
	C652.466675,673.741821 669.630371,676.829163 689.266052,671.785522 
M667.961975,561.716614 
	C658.682739,563.349243 651.952209,556.333923 643.642090,554.423889 
	C646.554565,557.220154 649.519836,559.822205 652.817688,561.894775 
	C660.359680,566.634583 672.914612,567.935181 680.330811,558.392273 
	C683.155151,554.758057 686.342041,551.273193 691.893250,549.300659 
	C685.801819,548.984619 682.228577,551.552856 678.997681,554.846375 
	C676.072083,557.828674 673.184570,560.868225 667.961975,561.716614 
M679.728638,700.660461 
	C677.081604,700.059692 674.429321,699.430786 671.814392,702.030457 
	C678.661865,701.919556 678.977051,701.875610 679.728638,700.660461 
z"/>
<path fill="#000000" opacity="1.000000" stroke="none" 
	d="
M424.931244,676.367615 
	C407.469391,670.644165 393.309235,659.918823 378.831116,649.867310 
	C353.783569,632.477661 328.892944,614.767761 302.835327,599.007996 
	C283.567444,587.354675 273.149139,571.093018 268.516235,549.938660 
	C265.196289,534.779358 263.583221,519.375793 261.801636,504.007538 
	C259.474091,483.929657 252.570633,465.942902 239.190536,450.576904 
	C233.499268,444.040924 228.228668,437.170776 223.709091,429.732849 
	C208.246475,404.285736 226.194885,380.205475 250.984451,377.667358 
	C314.918488,371.121429 371.582764,346.878662 421.200470,306.153961 
	C434.139191,295.534210 448.276215,297.053864 458.487183,310.390167 
	C468.536987,323.515991 474.799988,338.536072 477.983368,354.371429 
	C483.140411,380.024628 494.328583,402.336151 510.360443,422.703735 
	C526.479309,443.181824 530.433472,466.603546 526.767883,492.074829 
	C522.477966,521.884460 519.158264,551.832581 515.261414,581.700256 
	C512.937927,599.509155 511.211121,617.422363 505.916656,634.730957 
	C494.715790,671.348633 465.997467,683.732300 432.130249,678.025818 
	C429.839844,677.639893 427.593323,676.993530 424.931244,676.367615 
M383.346405,623.842285 
	C388.863983,623.691833 393.228546,620.933411 397.021729,617.331482 
	C400.637512,613.898010 403.997864,610.177246 407.289978,606.424316 
	C424.096893,587.264954 445.006683,578.648071 470.497528,581.489441 
	C476.129333,582.117188 481.813873,582.350159 487.464233,581.746033 
	C498.996613,580.513062 505.992432,570.763367 504.076080,559.472534 
	C502.359558,549.359192 496.431213,542.693726 487.806091,538.042236 
	C477.838837,532.666870 466.954895,530.250488 455.856659,528.681213 
	C433.584534,525.531860 412.095978,527.958984 392.915344,540.295837 
	C372.069885,553.703491 360.096497,572.658569 361.302002,598.301208 
	C361.973022,612.576050 370.956177,623.079102 383.346405,623.842285 
M327.627533,498.147003 
	C355.394562,491.303467 358.830078,464.708038 351.513763,442.620300 
	C347.106812,454.645599 338.952332,462.677124 328.854736,468.958374 
	C323.904663,472.037598 318.982269,475.162170 314.004730,478.196228 
	C303.257233,484.747345 295.203308,493.565033 291.186096,505.648499 
	C289.919739,509.457642 288.304382,513.406982 290.443970,518.224426 
	C300.208221,506.600006 312.733063,500.965912 327.627533,498.147003 
M468.014099,423.425323 
	C455.862854,419.478363 444.289520,422.900421 432.841858,426.478607 
	C418.356903,431.006073 403.925293,434.359711 387.802734,427.522034 
	C390.070709,430.659637 391.418457,432.707306 392.946594,434.610046 
	C408.685608,454.207245 427.037201,462.738922 450.554047,444.947266 
	C450.951141,444.646790 451.399628,444.415253 451.811493,444.133087 
	C459.931396,438.570068 468.673798,434.806366 478.704376,434.539520 
	C480.240265,434.498627 482.093445,434.631866 483.395721,432.389679 
	C479.470551,427.954895 474.305603,425.523865 468.014099,423.425323 
M322.501801,449.001862 
	C330.019867,441.685883 337.688232,434.493378 342.968048,425.255585 
	C346.057861,419.849548 348.380066,414.197296 348.246796,407.783508 
	C346.746704,409.264099 345.640350,410.893188 344.699646,412.612915 
	C339.250153,422.575592 331.672028,430.623505 322.671570,437.443909 
	C318.031830,440.959808 313.309082,444.408600 308.983582,448.288727 
	C296.164398,459.788025 285.270599,472.623596 281.596710,490.145721 
	C280.019531,497.667725 280.006104,499.503052 281.695099,503.998322 
	C284.077301,492.641785 289.412720,483.005585 296.732880,474.332275 
	C304.388458,465.261383 313.461670,457.658722 322.501801,449.001862 
M478.140472,413.173920 
	C481.008942,414.822388 483.877441,416.470825 486.745911,418.119293 
	C482.251770,412.964386 477.092957,408.876282 470.845734,406.276031 
	C454.055664,399.287598 436.816650,397.501923 419.012878,401.535492 
	C407.802826,404.075165 396.601746,404.069305 385.339203,401.543823 
	C380.743927,400.513336 376.312561,398.496521 370.794983,398.474030 
	C372.884796,401.396118 375.504974,402.539764 377.894531,403.879700 
	C394.166626,413.004089 411.546936,413.139740 429.374634,410.358093 
	C445.539825,407.835785 461.780609,405.320435 478.140472,413.173920 
M416.832733,512.372314 
	C411.903748,518.137329 405.421753,519.354004 398.281921,518.806519 
	C395.134857,518.565247 391.939117,518.221619 388.820251,518.512146 
	C383.399872,519.017212 378.046082,520.024536 374.538208,526.092285 
	C382.554688,521.031799 390.595520,522.482117 398.453857,523.422058 
	C408.041718,524.568787 415.872192,522.270813 421.437164,513.885559 
	C424.353271,509.491547 427.405029,505.154083 431.628296,501.744415 
	C424.692871,502.074402 421.473267,507.633820 416.832733,512.372314 
M350.919617,583.376526 
	C350.882019,573.559387 350.676453,563.761169 351.479126,553.933838 
	C352.274048,544.200928 353.991455,534.607178 355.563629,523.873535 
	C345.200867,542.369141 343.519073,576.873291 351.626068,593.755615 
	C351.397858,590.613953 351.169678,587.472351 350.919617,583.376526 
M476.460114,500.054291 
	C467.848541,492.819275 458.696289,486.554016 447.544128,483.808197 
	C465.273254,494.830627 480.456757,508.944763 495.708405,523.025330 
	C491.046051,514.097839 484.560577,506.846375 476.460114,500.054291 
M405.486969,623.409546 
	C405.585602,623.624939 405.667847,623.851746 405.801270,624.042908 
	C405.820404,624.070312 406.101013,623.947144 406.236267,623.857117 
	C421.881989,613.441284 438.777710,605.715820 456.803650,600.455444 
	C462.482941,598.798035 468.215942,597.324524 473.924377,595.766907 
	C448.062592,597.017883 425.432526,606.320129 405.486969,623.409546 
z"/>
</svg>